<svg width="602" height="602" viewBox="0 0 602 602" fill="none" xmlns="http://www.w3.org/2000/svg">
<path d="M111.754 240.337L53.868 182C21.9344 214.115 4 257.631 4 303C4 348.369 21.9344 391.885 53.868 424L112 365.663C95.4364 349.061 86.1089 326.544 86.0628 303.051C86.0166 279.558 95.2554 257.005 111.754 240.337Z" fill="#C5C5C5"/>
<path d="M57 179.42L114.593 237C122.764 228.856 132.468 222.395 143.149 217.986C153.83 213.578 165.28 211.309 176.842 211.309C188.405 211.309 199.854 213.578 210.536 217.986C221.217 222.395 230.921 228.856 239.092 237L281 165.513L278.549 163.561C245.861 139.282 205.488 127.524 164.809 130.436C124.131 133.347 85.8632 150.735 57 179.42Z" fill="#C5C5C5"/>
<path d="M281 440.521L238.893 369C230.731 377.176 221.037 383.662 210.368 388.088C199.698 392.513 188.262 394.791 176.711 394.791C165.161 394.791 153.725 392.513 143.055 388.088C132.385 383.662 122.692 377.176 114.53 369L57 426.805C85.7742 455.344 123.807 472.639 164.219 475.559C204.631 478.479 244.753 466.832 277.328 442.725L280.021 440.521" fill="#C5C5C5"/>
<path d="M300.294 180.585C268.088 212.888 250 256.658 250 302.293C250 347.927 268.088 391.697 300.294 424L358.923 365.322C342.187 348.572 332.786 325.855 332.786 302.168C332.786 278.481 342.187 255.764 358.923 239.015C375.658 222.265 398.356 212.856 422.023 212.856C445.69 212.856 468.388 222.265 485.123 239.015L544 180.585C528.009 164.55 509.016 151.828 488.107 143.148C467.198 134.468 444.783 130 422.147 130C399.511 130 377.096 134.468 356.187 143.148C335.278 151.828 316.285 164.55 300.294 180.585Z" fill="#C5C5C5"/>
<path d="M548.459 185L489.898 243.635C506.685 260.372 516.116 283.073 516.116 306.742C516.116 330.412 506.685 353.113 489.898 369.85C473.111 386.587 450.344 395.99 426.603 395.99C402.863 395.99 380.095 386.587 363.308 369.85L304 428.485C336.384 460.806 380.32 478.977 426.141 479C448.83 479.012 471.299 474.567 492.264 465.921C513.23 457.275 532.283 444.596 548.334 428.609C564.386 412.622 577.122 393.639 585.815 372.744C594.508 351.849 598.988 329.451 599 306.83C599.012 284.209 594.554 261.807 585.882 240.903C577.21 220 564.494 201.004 548.459 185Z" fill="#C5C5C5"/>
</svg>